<svg width="101" height="101" viewBox="0 0 101 101" fill="none" xmlns="http://www.w3.org/2000/svg">
<g filter="url(#filter0_d_6_3562)">
<circle cx="50.5" cy="48.5" r="47.5" fill="#FECC38" fill-opacity="0.22"/>
<path d="M50.3875 56.8125H48.7375C48.054 56.8125 47.5 56.2585 47.5 55.575V51.8625C47.5 51.179 48.054 50.625 48.7375 50.625H50.3875C51.071 50.625 51.625 51.179 51.625 51.8625V55.575C51.625 56.2585 51.071 56.8125 50.3875 56.8125Z" fill="#272350" stroke="#272350" stroke-width="3" stroke-linecap="round" stroke-linejoin="round"/>
<path d="M31 41.3438L49.5625 30L68.125 41.3438" stroke="#272350" stroke-width="3" stroke-linecap="round" stroke-linejoin="round"/>
<path d="M64 48.5625V61.7625C64 62.446 63.446 63 62.7625 63H36.3625C35.679 63 35.125 62.446 35.125 61.7625V48.5625" stroke="#272350" stroke-width="3" stroke-linecap="round" stroke-linejoin="round"/>
</g>
<defs>
<filter id="filter0_d_6_3562" x="0" y="0" width="101" height="101" filterUnits="userSpaceOnUse" color-interpolation-filters="sRGB">
<feFlood flood-opacity="0" result="BackgroundImageFix"/>
<feColorMatrix in="SourceAlpha" type="matrix" values="0 0 0 0 0 0 0 0 0 0 0 0 0 0 0 0 0 0 127 0" result="hardAlpha"/>
<feOffset dy="2"/>
<feGaussianBlur stdDeviation="1.5"/>
<feComposite in2="hardAlpha" operator="out"/>
<feColorMatrix type="matrix" values="0 0 0 0 0 0 0 0 0 0 0 0 0 0 0 0 0 0 0.05 0"/>
<feBlend mode="normal" in2="BackgroundImageFix" result="effect1_dropShadow_6_3562"/>
<feBlend mode="normal" in="SourceGraphic" in2="effect1_dropShadow_6_3562" result="shape"/>
</filter>
</defs>
</svg>
