<svg width="101" height="101" viewBox="0 0 101 101" fill="none" xmlns="http://www.w3.org/2000/svg">
<g filter="url(#filter0_d_6_3561)">
<circle cx="50.5" cy="48.5" r="47.5" fill="#F9F9F9"/>
<path d="M50.5 30C40.2827 30 32 38.2827 32 48.5C32 58.7172 40.2827 67 50.5 67C60.7172 67 69 58.7172 69 48.5C69 38.2827 60.7172 30 50.5 30Z" stroke="#272350" stroke-width="3" stroke-linecap="round" stroke-linejoin="round"/>
<path d="M36.2012 60.2395C36.2012 60.2395 40.3249 54.975 50.4998 54.975C60.6748 54.975 64.7987 60.2395 64.7987 60.2395" stroke="#272350" stroke-width="3" stroke-linecap="round" stroke-linejoin="round"/>
<path d="M50.5 48.5C53.5652 48.5 56.05 46.0153 56.05 42.95C56.05 39.8849 53.5652 37.4 50.5 37.4C47.4347 37.4 44.95 39.8849 44.95 42.95C44.95 46.0153 47.4347 48.5 50.5 48.5Z" stroke="#272350" stroke-width="3" stroke-linecap="round" stroke-linejoin="round"/>
</g>
<defs>
<filter id="filter0_d_6_3561" x="0" y="0" width="101" height="101" filterUnits="userSpaceOnUse" color-interpolation-filters="sRGB">
<feFlood flood-opacity="0" result="BackgroundImageFix"/>
<feColorMatrix in="SourceAlpha" type="matrix" values="0 0 0 0 0 0 0 0 0 0 0 0 0 0 0 0 0 0 127 0" result="hardAlpha"/>
<feOffset dy="2"/>
<feGaussianBlur stdDeviation="1.5"/>
<feComposite in2="hardAlpha" operator="out"/>
<feColorMatrix type="matrix" values="0 0 0 0 0 0 0 0 0 0 0 0 0 0 0 0 0 0 0.05 0"/>
<feBlend mode="normal" in2="BackgroundImageFix" result="effect1_dropShadow_6_3561"/>
<feBlend mode="normal" in="SourceGraphic" in2="effect1_dropShadow_6_3561" result="shape"/>
</filter>
</defs>
</svg>
